<svg xmlns="http://www.w3.org/2000/svg" viewBox="0 0 2455 1500" fill="none" role="img" aria-label="Olo">
<path d="M498.441 251.082C223.089 251.082 0 474.835 0 749.263C0 1023.69 223.089 1247.44 498.441 1247.44C773.792 1247.44 996.881 1024.47 996.881 749.263C996.881 474.055 773.792 251.082 498.441 251.082ZM498.441 1012.78C353.355 1012.78 235.57 895.053 235.57 749.263C235.57 604.252 353.355 486.529 498.441 486.529C643.527 486.529 761.311 604.252 761.311 749.263C762.091 895.053 644.307 1012.78 498.441 1012.78Z" fill="#2D96FF"/>
<path d="M1955.86 251.051C1680.51 251.051 1457.42 474.024 1457.42 749.232C1457.42 1024.44 1680.51 1247.41 1955.86 1247.41C2231.21 1247.41 2454.3 1024.44 2454.3 749.232C2454.3 474.024 2231.21 251.051 1955.86 251.051ZM1955.86 1012.74C1810.78 1012.74 1692.99 895.022 1692.99 749.232C1692.99 604.221 1810.78 486.498 1955.86 486.498C2100.95 486.498 2218.73 604.221 2218.73 749.232C2218.73 895.022 2100.95 1012.74 1955.86 1012.74Z" fill="#2D96FF"/>
<path d="M1344.9 0H1109.33V1500H1344.9V0Z" fill="#2D96FF"/>
</svg>
