<?xml version="1.0" encoding="UTF-8" standalone="no"?>
<!-- Created with Inkscape (http://www.inkscape.org/) -->

<svg
   width="88.672852mm"
   height="22.22958mm"
   viewBox="0 0 88.672852 22.22958"
   version="1.1"
   id="svg1"
   xmlns="http://www.w3.org/2000/svg"
   xmlns:svg="http://www.w3.org/2000/svg">
  <defs
     id="defs1" />
  <g
     id="layer1"
     transform="translate(-64.293746,-137.31875)">
    <path
       id="path13"
       d="m 111.96591,146.26974 c 0,0 -0.0776,2.53859 -0.0776,3.69252 0,1.155 -1.57692,1.30952 -1.57692,1.30952 h -4.88597 v -6.4255 h 5.11669 c 1.26929,0 1.42381,1.42346 1.42381,1.42346 m 2.34668,-0.0353 c 0,-2.50366 -1.50001,-3.73521 -3.46252,-3.73521 h -5.42466 v -4.92478 h -2.26977 l -0.0385,16.23625 h 7.46301 c 0,0 3.59163,-0.23213 3.7278,-3.41207 0.0145,-0.31856 0.005,-2.92982 0.005,-4.16419"
       style="fill:#231f20;fill-opacity:1;fill-rule:nonzero;stroke:none;stroke-width:0.352778" />
    <path
       id="path14"
       d="m 118.66026,153.86103 v -11.20775 l -2.35197,-0.0257 0.0427,11.18305 z"
       style="fill:#231f20;fill-opacity:1;fill-rule:nonzero;stroke:none;stroke-width:0.352778" />
    <path
       id="path15"
       d="m 66.64501,153.86103 v -11.20775 l -2.351264,-0.0257 0.04304,11.18305 z"
       style="fill:#f16924;fill-opacity:1;fill-rule:nonzero;stroke:none;stroke-width:0.352778" />
    <path
       id="path16"
       d="m 123.43059,153.86103 v -16.49095 l -2.35056,-0.0268 0.0423,16.46731 z"
       style="fill:#231f20;fill-opacity:1;fill-rule:nonzero;stroke:none;stroke-width:0.352778" />
    <path
       id="path17"
       d="m 94.037534,151.27185 c 0,0 -1.577622,-0.15452 -1.577622,-1.30951 0,-1.15394 -0.07691,-3.69253 -0.07691,-3.69253 0,0 0.153811,-1.42345 1.4224,-1.42345 h 3.579283 c 1.268589,0 1.42487,1.42345 1.42487,1.42345 0,0 -0.07867,2.53859 -0.07867,3.69253 0,1.15499 -1.576563,1.30951 -1.576563,1.30951 z m 7.117996,-5.03731 c 0,-2.50367 -1.501069,-3.73557 -3.463218,-3.73557 h -0.657931 -2.846916 -0.689328 c -1.962503,0 -3.463219,1.2319 -3.463219,3.73557 0,1.23437 -0.0092,3.84527 0.0053,4.16419 0.136525,3.17993 3.728508,3.41171 3.728508,3.41171 h 0.648406 1.925108 1.080206 c 0,0 3.591274,-0.23178 3.729924,-3.41171 0.0127,-0.31892 0.003,-2.92982 0.003,-4.16419"
       style="fill:#231f20;fill-opacity:1;fill-rule:nonzero;stroke:none;stroke-width:0.352778" />
    <path
       id="path18"
       d="m 69.449064,153.73304 v -8.07826 c 0,0 0,-3.11785 3.501672,-3.11785 h 3.500261 c 0,0 2.116667,0.0392 2.116667,1.27035 0,0 0.423333,-1.19238 2.077155,-1.19238 1.655233,0 3.770841,0.0765 3.770841,0.0765 0,0 3.462514,0.21202 3.462514,3.46287 v 7.57872 h -2.34703 v -7.42562 c 0,0 0,-1.38465 -1.230842,-1.38465 -1.231194,0 -3.23215,-0.0381 -3.23215,-0.0381 0,0 -1.230841,-0.0385 -1.230841,1.19274 v 7.65563 h -2.309284 v -7.65563 c 0,0 -0.03669,-1.19274 -1.191683,-1.19274 h -3.347155 c 0,0 -1.231195,0.0381 -1.231195,1.50001 v 7.34836 z"
       style="fill:#231f20;fill-opacity:1;fill-rule:nonzero;stroke:none;stroke-width:0.352778" />
    <path
       id="path19"
       d="m 134.78009,146.60315 h -6.41632 c -0.006,-0.20426 -0.009,-0.33337 -0.009,-0.33337 0,0 0.15381,-1.42346 1.42381,-1.42346 h 3.57787 c 1.27106,0 1.42381,1.42346 1.42381,1.42346 z m 2.35514,0 h -0.009 v -0.36865 c 0,-2.50367 -1.50001,-3.73521 -3.46075,-3.73521 h -0.65863 -2.84692 -0.68933 c -1.9625,0 -3.46322,1.23154 -3.46322,3.73521 0,1.23437 -0.009,3.84527 0.005,4.16419 0.13829,3.17993 3.72745,3.41206 3.72745,3.41206 h 0.65193 3.6061 c -0.19403,-0.75071 -0.29351,-1.55434 -0.29351,-2.41476 l -3.64349,0.004 c 0,0 -1.62878,-0.28258 -1.62878,-1.43757 0,-0.37888 -0.008,-0.90911 -0.0187,-1.4478 h 8.72243 z"
       style="fill:#231f20;fill-opacity:1;fill-rule:nonzero;stroke:none;stroke-width:0.352778" />
    <path
       id="path20"
       d="m 149.01806,147.48157 c -0.50165,-0.88053 -1.06468,-1.57162 -1.6891,-2.07257 -0.47978,-0.38876 -0.7874,-0.58349 -0.9204,-0.58349 l 2.42394,-7.50676 h -12.98646 v 4.69688 h 3.00814 v -1.87254 h 6.03321 l -2.02072,6.30555 c 1.07598,0.20496 2.00025,0.70661 2.76931,1.506 0.91405,0.94157 1.36984,2.09374 1.36984,3.45511 0,1.47355 -0.53587,2.71286 -1.6122,3.71546 -0.91969,0.86183 -1.9491,1.29116 -3.08433,1.29116 -1.13595,0 -2.19075,-0.40887 -3.16266,-1.22802 -1.1557,-0.97331 -1.73496,-2.23731 -1.73496,-3.79236 h -2.77777 c 0,0.86043 0.0988,1.66405 0.29316,2.41477 0.35242,1.36348 1.02623,2.54458 2.02353,3.54224 1.47355,1.46297 3.26002,2.19533 5.3587,2.19533 2.08773,0 3.88055,-0.78528 5.37986,-2.35796 1.50001,-1.57022 2.24895,-3.47169 2.24895,-5.7023 0,-1.51413 -0.30691,-2.85009 -0.92004,-4.0065"
       style="fill:#f16924;fill-opacity:1;fill-rule:nonzero;stroke:none;stroke-width:0.352778" />
    <path
       id="path21"
       d="m 150.24477,139.07907 v -1.54975 h -0.57891 v -0.20708 h 1.39277 v 0.20708 h -0.58138 v 1.54975 z"
       style="fill:#f16924;fill-opacity:1;fill-rule:nonzero;stroke:none;stroke-width:0.352778" />
    <path
       id="path22"
       d="m 151.2898,139.07907 v -1.75683 h 0.34996 l 0.41592,1.24389 c 0.0385,0.11571 0.0663,0.2025 0.084,0.26 0.0198,-0.0639 0.0511,-0.15769 0.0935,-0.28152 l 0.42051,-1.22237 h 0.31291 v 1.75683 h -0.22436 v -1.47038 l -0.51047,1.47038 h -0.20955 l -0.50836,-1.49578 v 1.49578 z"
       style="fill:#f16924;fill-opacity:1;fill-rule:nonzero;stroke:none;stroke-width:0.352778" />
    <path
       id="path23"
       d="m 66.660956,139.85363 h -2.300111 v -2.29976 h 2.300111 z"
       style="fill:#f16924;fill-opacity:1;fill-rule:nonzero;stroke:none;stroke-width:0.352778" />
    <path
       id="path24"
       d="m 118.60219,139.8755 h -2.29941 v -2.29975 h 2.29941 z"
       style="fill:#231f20;fill-opacity:1;fill-rule:nonzero;stroke:none;stroke-width:0.352778" />
  </g>
</svg>
