<?xml version="1.0" encoding="UTF-8"?><svg data-id="Layer_1" xmlns="http://www.w3.org/2000/svg" viewBox="0 0 774.23 721.06"><defs><style>.cls-1{fill:#ff7c24;}.cls-2{fill:#bf174f;}.cls-3{fill:#610c73;}</style></defs><path class="cls-2" d="M312.44,539.98c-1.23.89-7.89-6.79-9.07-8.19-26.11-30.92-23.5-63.82-39.82-96.69-29.97-60.33-115.13-53.14-126.24-130.78-.11-.78,0-2.43,1.05-2.02,16.44,19.44,41.94,30.29,65.51,38.78,11.7,4.22,24.65,6.58,35.92,11.39,24.88,10.6,45.04,39,43.74,66.46,2.79.43,2.42-5.79,2.55-7.57,5.94-83.92-78.94-79.99-125.46-121.11-30.17-26.67-47.59-72.24-43.92-112.26l19.26,31.56c51.3,61.95,142.73,47.33,173,133.15,22.81,64.67-21.43,106.82-8.3,165.49l11.79,31.79Z"/><path class="cls-3" d="M461.83,416.12c-.48-27.49,20.79-55.27,46.29-65.12,11.56-4.47,24.74-6.44,36.71-10.31,24.11-7.79,50.26-17.88,67.49-36.81,1.08-.38,1.14,1.28,1.01,2.05-13.61,77.27-97.83,66.91-130,126.31-5.57,10.28-11.3,25.1-15.39,35.94l-6.11-52.06Z"/><path class="cls-1" d="M608.53,307.74c1.27-1.22,2.51-2.47,3.7-3.77-.02,0-.04,0-.07,0-1.17,1.3-2.38,2.55-3.63,3.76Z"/><path class="cls-1" d="M467.94,468.18l-6.11-52.06c0-.36,0-.73,0-1.09-.8-1.82-.55-5.22-.6-6.47-3.42-84.06,81.3-77.58,129.03-117.3,30.96-25.76,49.74-70.78,47.26-110.89l-20.19,30.97c-53.13,60.38-144.08,43.03-176.91,127.91-12.13,31.36-7.02,62.06-.04,93.83,7.23,32.85-2.42,65.14-16.84,95-11.75,24.33-26.97,46.79-42.12,69.16,22.52-14.69,40.11-35.3,54.41-57.87,3.14-4.95,6.11-10,8.95-15.09,10.13-18.21,16.41-37.72,23.45-56.9-.1.27-.21.55-.31.81Z"/><path class="cls-3" d="M285.06,421.9c1.31-28.3-19.09-57.57-44.25-68.5-11.4-4.95-24.5-7.39-36.34-11.74-23.84-8.76-49.64-19.95-66.27-39.98-1.07-.42-1.18,1.28-1.07,2.08,11.25,80.01,97.39,72.63,127.72,134.8,3.06,6.28,9.18,25.51,11.23,31.78l8.98-48.44Z"/><path class="cls-1" d="M457.42,149.21c-2.76,28.99-20.89,42.96-46.73,51.12-24.14,7.63-48.35,5.62-69.22,22.16-2.19,1.73-5.07,6-6.39,6.78-1.73,1.04-8.58,2.19-11.6,3.58-10.96,5.06-18.86,14.96-21.08,26.96.87-4.72,21.68-2.27,24.67-1.52,8.23,2.06,16.07,6.65,21.31,13.4,12.99,16.75,3.74,39-10.58,51.59-1.57,1.38-3.24,2.76-4.22,4.61-1.8,3.39-.96,7.51-.23,11.28,5.86,30.49.53,61.64-6.25,91.51-5.21,22.99-10.49,42.02-7.29,66.05,4.78,35.9,19.33,70.89,37,102.3.28.5,3.8,7.52,4.32,7.41.05-.01-9.99-34.89-11.1-71-.59-19.13-1.19-38.72,8.17-60,4.73-10.76,13.29-24.85,16.29-29.8,8.77-14.44,9.51-13.54,15.68-23.95,20.45-34.48,32.33-72.78,29.96-113.19-.53-9.01-1.73-17.99-3.61-26.82-1.36-6.39-4.14-10.9-2.67-14.39.98-2.32,3.15-3.17,5.16-4.21,9.11-4.71,17.7-10.98,22.63-16.27,5.3-5.68,8.32-12.32,7.52-12.97-.68-.55-3.4,3.75-9.15,6.93-9.18,5.07-21.62,4.81-30.53-.55-1.85-1.11-3.21-2.24-4.05-3,43.45-3.19,81.97-47.14,51.97-88.04ZM358.08,240.31s.41-.79,1.27-1.86c0,0,0,0,0-.01.58-.76,1.23-1.39,1.9-1.96.01,0,.02-.02.03-.03.17-.14.33-.27.5-.4,3.84-3.09,10.93-5.92,22.55-.88,0,0-11.34,18.56-26.26,5.13Z"/><path class="cls-2" d="M457.59,149.1c-2.76,28.99-20.89,42.96-46.73,51.13-24.14,7.63-48.35,5.62-69.22,22.16-2.19,1.73-5.07,6-6.39,6.78-1.73,1.04-8.58,2.19-11.6,3.58-10.96,5.06-18.86,14.96-21.08,26.96.87-4.72,21.68-2.27,24.67-1.52,8.23,2.06,16.07,6.65,21.31,13.4,12.99,16.75,3.74,39-10.58,51.59-1.57,1.38-3.24,2.76-4.22,4.61-1.8,3.39-.96,7.51-.23,11.28,5.86,30.49.53,61.64-6.25,91.51-5.21,22.99-10.49,42.02-7.29,66.05,2.78,20.85,8.87,41.39,16.93,61.1,0-.17,0-.34,0-.51-3.55-18.71-6.24-46.71,2.15-78,5.4-20.13,14.67-36.37,33.21-68.85,21.13-37.02,35.21-53.75,42.52-86.99,2.39-10.87,3.28-19.96,3.66-25.68l-.03-6.6c-.27-2.18-.76-5.52-1.72-9.51-2.06-8.65-4.07-11.2-2.66-14.19,1.27-2.69,4.29-1.92,10.67-4.84,5.63-2.58,11.29-5.76,14.62-7.97,10.88-7.2,11.57-19.64,10.01-20.83-.95-.73-3.18,2.89-9.27,6.05-8.93,4.64-21.23,5.72-30.4.32-1.84-1.08-3.19-2.21-4.05-3,43.45-3.19,81.97-47.14,51.97-88.04ZM358.08,240.31s6.84-13.55,26.26-5.13c0,0-11.34,18.56-26.26,5.13Z"/><path class="cls-1" d="M413.86,495.86c-2.21-1.69-4.96,4.63-5.86,5.96-2.55,3.76-12.18,15.25-17.34,9.76-.45-.48-.68-1.11-.83-1.76-1.33-5.93.87-11.82,4.22-16.89,12.4-18.77,25.03-26.42,26.98-49.28.8-9.34-3.24-18.12-6.2-26.89-.59-1.75-2.85,6.71-3.25,7.79-1.69,4.58-3.87,8.97-6.32,13.18-4.81,8.25-10.7,15.81-16.57,23.32-11.61,14.83-20.91,28.41-24.28,47.34-2.74,15.4-2.33,34.73,7.66,47.73,1.48,2.09,3.43,4.07,5.93,4.62,2.85.64,5.76-.68,8.27-2.18,8.42-5.04,15.17-12.52,20.08-20.96,4.95-8.5,8.36-17.71,9.07-27.57.2-2.84.36-5.71.34-8.56-.02-1.93-.22-4.35-1.9-5.61Z"/></svg>