<?xml version="1.0" encoding="UTF-8" standalone="no"?>
<!-- Created with Inkscape (http://www.inkscape.org/) -->

<svg
   width="82.470627mm"
   height="36.475426mm"
   viewBox="0 0 82.470627 36.475426"
   version="1.1"
   id="svg1"
   xmlns="http://www.w3.org/2000/svg"
   xmlns:svg="http://www.w3.org/2000/svg">
  <defs
     id="defs1">
	
	
	
	
	
	
</defs>
  <g
     id="layer1"
     transform="translate(-67.204167,-124.61878)">
    <polygon
       class="st1"
       points="143.03,108.66 138.49,106.41 143.25,98.92 140.86,92.47 138.43,88.96 132.51,94.89 130.79,93.17 137.02,86.93 134.8,83.72 130.43,78.55 126.65,82.63 119.99,92.37 118.5,96.84 118.57,102.18 122.63,106.41 118.93,107.76 117.85,110.27 123.79,116.39 121.27,138.69 114.43,149.47 110.12,151.27 111.56,155.05 114.61,158.11 110.48,161.7 107.06,165.84 107.24,169.43 153.64,169.43 153.63,165.12 151.3,162.06 146.26,159.54 147.34,156.13 150.4,153.25 149.68,150.55 146.44,149.29 139.43,139.05 136.19,116.21 143.03,111.17 "
       id="polygon2"
       style="fill:#d52a28"
       transform="matrix(0.26458333,0,0,0.26458333,52.204938,104.24583)" />
    <path
       class="st0"
       d="M 91.511438,146.57916 V 145.796 c 0.484187,-0.15875 0.833437,-0.5715 0.833437,-1.05834 0,-0.54768 -0.439208,-1.00277 -1.021292,-1.10596 -0.325437,-0.35983 -1.521354,-1.71185 -1.799166,-2.43945 -0.256646,-0.6694 -0.635,-4.064 -0.788459,-5.6224 0.486834,-0.15875 0.836084,-0.5715 0.836084,-1.05833 v -0.0767 c 0.484187,-0.15875 0.833437,-0.5715 0.833437,-1.05834 0,-0.51593 -0.394229,-0.9525 -0.928687,-1.08479 h -0.07937 c 0.513291,-0.57679 0.896937,-1.24354 0.896937,-1.95262 0,-0.83609 -0.529166,-1.8759 -1.177396,-2.83634 l -0.449791,0.4498 c 0.518583,0.77258 0.939271,1.60337 0.939271,2.27541 0,0.77259 -0.560917,1.48167 -1.185334,2.032 h -3.386666 c -0.627063,-0.55033 -1.185334,-1.25941 -1.185334,-2.032 0,-1.75418 2.878667,-4.61698 2.878667,-4.61698 0,0 0.801687,0.79905 1.561042,1.80975 l 0.452437,-0.45243 c -0.960437,-1.3044 -2.013479,-2.3495 -2.013479,-2.3495 0,0 -3.566583,3.54806 -3.566583,5.72029 0,0.71173 0.383645,1.37848 0.896937,1.95262 h -0.137583 c -0.534459,0.13229 -0.928688,0.56886 -0.928688,1.08479 0,0.48684 0.34925,0.89959 0.833438,1.05834 v 0.0767 c 0,0.48683 0.34925,0.89958 0.836083,1.05833 -0.153458,1.5584 -0.531812,4.953 -0.788458,5.6224 -0.280459,0.7276 -1.473729,2.07962 -1.799167,2.43945 -0.582083,0.10319 -1.021292,0.55828 -1.021292,1.10596 0,0.48684 0.34925,0.89959 0.833438,1.05834 v 0.78316 c -0.944563,0.14817 -1.664229,0.88107 -1.664229,1.76213 v 0.83344 c 0,0.17197 0.156104,0.30956 0.346604,0.30956 h 6.125104 0.02117 6.125104 c 0.193146,0 0.346604,-0.13759 0.346604,-0.30956 v -0.83344 c -0.01058,-0.88106 -0.73025,-1.61396 -1.674812,-1.76213 z M 84.253917,133.8871 c -0.314854,0 -0.5715,-0.22754 -0.5715,-0.51065 0,-0.28045 0.256646,-0.508 0.5715,-0.508 h 2.428875 0.02117 2.428875 c 0.314855,0 0.5715,0.22755 0.5715,0.508 0,0.28046 -0.256645,0.51065 -0.5715,0.51065 h -0.658812 -1.770063 -0.02117 -1.770063 z m 0.269875,7.50623 c 0.309562,-0.80963 0.709083,-4.62227 0.820208,-5.73617 l 2.910417,1.92882 c 0.171979,1.49489 0.41275,3.28347 0.613833,3.80735 0.246063,0.64029 1.042458,1.62454 1.55575,2.21985 h -0.73025 c -0.01852,0 -0.03969,0.003 -0.05821,0.005 H 83.7565 c -0.01852,-0.003 -0.03704,-0.005 -0.05821,-0.005 h -0.73025 c 0.513291,-0.59531 1.309687,-1.57956 1.55575,-2.21985 z m -2.786063,3.34698 c 0,-0.28046 0.256646,-0.51065 0.574146,-0.51065 h 1.386417 c 0.02381,0 0.04763,-0.003 0.07144,-0.005 h 5.852584 c 0.02381,0.005 0.04498,0.005 0.07144,0.005 h 1.386417 c 0.314854,0 0.574146,0.22754 0.574146,0.51065 0,0.28046 -0.256646,0.51064 -0.574146,0.51064 h -4.370917 -0.02117 -4.370916 c -0.322792,-0.003 -0.579438,-0.23018 -0.579438,-0.51064 z m 10.744729,4.1275 h -5.7785 -0.02117 -5.7785 v -0.52388 c 0,-0.64558 0.590021,-1.17475 1.320271,-1.17475 h 4.458229 0.02117 4.45823 c 0.727604,0 1.32027,0.52652 1.32027,1.17475 z"
       id="path2"
       style="fill:#131a23;stroke-width:0.264583" />
    <g
       id="g8"
       transform="matrix(0.26458333,0,0,0.26458333,52.204938,104.24583)">
		<path
   class="st0"
   d="m 201.33,111.4 -3.67,5.79 c -3.48,-2.8 -8.59,-4.44 -13.71,-4.44 -8.59,0 -11.97,4.92 -11.97,9.56 0,2.9 1.45,5.7 3.86,7.63 2.32,1.93 6.08,3.09 9.27,4.05 4.25,1.26 8.98,2.61 13.03,6.08 3.38,2.9 6.37,7.82 6.37,13.42 0,8.79 -6.76,17.96 -20.56,17.96 -6.76,0 -13.61,-2.12 -19.21,-6.56 l 4.05,-5.5 c 4.44,3.67 9.75,5.31 15.16,5.31 9.75,0 13.42,-5.99 13.42,-11.2 0,-2.99 -1.54,-6.37 -4.25,-8.59 -2.61,-2.22 -6.56,-3.38 -11.01,-4.73 -3.57,-1.06 -7.34,-2.12 -11.3,-5.41 -3.28,-2.7 -5.99,-7.34 -5.99,-12.26 0,-9.17 7.14,-16.51 19.11,-16.51 6.4,-0.01 12.87,2.02 17.4,5.4 z"
   id="path3"
   style="fill:#131a23" />

		<path
   class="st0"
   d="m 224.54,106.57 v 27.8 h 28.19 v -27.8 h 7.14 v 64.29 h -7.14 v -29.73 h -28.19 v 29.73 h -7.14 v -64.29 z"
   id="path4"
   style="fill:#131a23" />

		<path
   class="st0"
   d="m 276.39,115.55 c 3.57,-5.89 10.33,-9.56 18.44,-9.56 8.11,0 14.87,3.67 18.44,9.56 3.48,5.7 3.48,11.78 3.48,23.17 0,11.39 0,17.47 -3.48,23.17 -3.57,5.89 -10.33,9.56 -18.44,9.56 -8.11,0 -14.87,-3.67 -18.44,-9.56 -3.47,-5.7 -3.47,-11.78 -3.47,-23.17 -0.01,-11.4 -0.01,-17.48 3.47,-23.17 z m 6.17,42.96 c 2.32,3.86 6.85,6.18 12.26,6.18 5.41,0 9.94,-2.32 12.26,-6.18 2.51,-4.15 2.51,-9.94 2.51,-19.79 0,-9.85 0,-15.64 -2.51,-19.79 -2.32,-3.86 -6.85,-6.18 -12.26,-6.18 -5.41,0 -9.94,2.32 -12.26,6.18 -2.51,4.15 -2.51,9.94 -2.51,19.79 0,9.84 0,15.63 2.51,19.79 z"
   id="path5"
   style="fill:#131a23" />

		<path
   class="st0"
   d="m 341.26,106.57 c 7.63,0 14.77,0 20.66,5.31 4.73,4.25 6.47,10.33 6.47,15.45 0,5.12 -1.74,11.2 -6.47,15.45 -5.89,5.31 -13.03,5.31 -20.66,5.31 h -4.34 v 22.78 h -7.14 v -64.29 h 11.48 z m -4.34,34.75 h 4.34 c 7.14,0 11.87,0 15.64,-3.38 2.61,-2.32 4.34,-5.99 4.34,-10.62 0,-4.63 -1.74,-8.3 -4.34,-10.62 -3.77,-3.38 -8.5,-3.38 -15.64,-3.38 h -4.34 z"
   id="path6"
   style="fill:#131a23" />

		<g
   id="g7">
			<path
   class="st0"
   d="m 88.2,110.33 c 3.96,3.09 6.18,8.01 6.18,13.51 0,5.89 -2.51,10.62 -7.05,13.42 5.6,2.9 8.98,8.3 8.98,15.35 0,5.5 -2.12,10.04 -5.12,13.03 -5.21,5.21 -11.97,5.21 -19.11,5.21 H 56.73 v -64.29 h 14.38 c 6.86,0.01 12.26,0.01 17.09,3.77 z m -24.33,3 v 21.05 h 7.24 c 6.56,0 11,0 13.8,-3.47 1.64,-2.03 2.32,-4.54 2.32,-7.05 0,-2.51 -0.68,-5.02 -2.32,-7.05 -2.8,-3.48 -7.24,-3.48 -13.8,-3.48 z m 0,27.8 v 22.98 h 8.21 c 6.66,0 11.01,0 14.19,-3.38 1.64,-1.74 2.9,-4.63 2.9,-8.11 0,-3.48 -1.26,-6.37 -2.9,-8.11 -3.19,-3.38 -7.53,-3.38 -14.19,-3.38 z"
   id="path7"
   style="fill:#131a23" />

		</g>

	</g>
    <g
       id="g20"
       transform="matrix(0.26458333,0,0,0.26458333,52.204938,104.24583)">
		<path
   class="st0"
   d="m 74.14,188.19 -1.96,2.4 c -1.27,-1.31 -3.23,-2.27 -5.67,-2.27 -2.14,0 -3.93,0.79 -5.02,2.18 -1.57,2.01 -1.57,4.54 -1.57,9.56 0,5.02 0,7.51 1.53,9.51 1.05,1.35 2.75,2.23 5.06,2.23 2.53,0 4.71,-1.05 6.02,-2.57 l 2.23,2.18 c -1.79,1.96 -4.8,3.45 -8.25,3.45 -3.49,0 -6.11,-1.44 -7.68,-3.49 -2.14,-2.79 -2.14,-5.85 -2.14,-11.3 0,-5.28 0,-8.55 2.18,-11.35 1.53,-1.96 4.15,-3.45 7.64,-3.45 3.14,0 5.89,1.22 7.63,2.92 z"
   id="path8"
   style="fill:#131a23" />

		<path
   class="st0"
   d="m 83.88,185.53 v 26.01 h 12.05 v 3.06 H 80.65 v -29.07 z"
   id="path9"
   style="fill:#131a23" />

		<path
   class="st0"
   d="m 111.63,185.53 h 2.62 l 9.91,29.07 h -3.4 l -2.31,-7.2 h -11 l -2.31,7.2 h -3.4 z m 1.31,4.54 -4.54,14.27 h 9.08 z"
   id="path10"
   style="fill:#131a23" />

		<path
   class="st0"
   d="m 146.19,187.71 -1.66,2.62 c -1.57,-1.27 -3.88,-2.01 -6.2,-2.01 -3.88,0 -5.41,2.23 -5.41,4.32 0,1.31 0.65,2.57 1.75,3.45 1.05,0.87 2.75,1.4 4.19,1.83 1.92,0.57 4.06,1.18 5.89,2.75 1.53,1.31 2.88,3.54 2.88,6.07 0,3.97 -3.05,8.12 -9.3,8.12 -3.05,0 -6.15,-0.96 -8.69,-2.97 l 1.83,-2.49 c 2.01,1.66 4.41,2.4 6.85,2.4 4.41,0 6.07,-2.71 6.07,-5.06 0,-1.35 -0.7,-2.88 -1.92,-3.88 -1.18,-1 -2.97,-1.53 -4.98,-2.14 -1.62,-0.48 -3.32,-0.96 -5.11,-2.44 -1.48,-1.22 -2.71,-3.32 -2.71,-5.54 0,-4.15 3.23,-7.46 8.64,-7.46 2.9,-0.01 5.83,0.9 7.88,2.43 z"
   id="path11"
   style="fill:#131a23" />

		<path
   class="st0"
   d="m 169.88,187.71 -1.66,2.62 c -1.57,-1.27 -3.88,-2.01 -6.2,-2.01 -3.88,0 -5.41,2.23 -5.41,4.32 0,1.31 0.65,2.57 1.75,3.45 1.05,0.87 2.75,1.4 4.19,1.83 1.92,0.57 4.06,1.18 5.89,2.75 1.53,1.31 2.88,3.54 2.88,6.07 0,3.97 -3.05,8.12 -9.3,8.12 -3.05,0 -6.15,-0.96 -8.69,-2.97 l 1.83,-2.49 c 2.01,1.66 4.41,2.4 6.85,2.4 4.41,0 6.07,-2.71 6.07,-5.06 0,-1.35 -0.7,-2.88 -1.92,-3.88 -1.18,-1 -2.97,-1.53 -4.98,-2.14 -1.62,-0.48 -3.32,-0.96 -5.11,-2.44 -1.48,-1.22 -2.71,-3.32 -2.71,-5.54 0,-4.15 3.23,-7.46 8.64,-7.46 2.91,-0.01 5.83,0.9 7.88,2.43 z"
   id="path12"
   style="fill:#131a23" />

		<path
   class="st0"
   d="m 180.22,214.6 h -3.23 v -29.07 h 3.23 z"
   id="path13"
   style="fill:#131a23" />

		<path
   class="st0"
   d="m 204.01,188.19 -1.96,2.4 c -1.27,-1.31 -3.23,-2.27 -5.67,-2.27 -2.14,0 -3.93,0.79 -5.02,2.18 -1.57,2.01 -1.57,4.54 -1.57,9.56 0,5.02 0,7.51 1.53,9.51 1.05,1.35 2.75,2.23 5.06,2.23 2.53,0 4.71,-1.05 6.02,-2.57 l 2.23,2.18 c -1.79,1.96 -4.8,3.45 -8.25,3.45 -3.49,0 -6.11,-1.44 -7.68,-3.49 -2.14,-2.79 -2.14,-5.85 -2.14,-11.3 0,-5.28 0,-8.55 2.18,-11.35 1.53,-1.96 4.15,-3.45 7.64,-3.45 3.13,0 5.88,1.22 7.63,2.92 z"
   id="path14"
   style="fill:#131a23" />

		<path
   class="st0"
   d="m 224.48,185.53 9.17,18.03 9.12,-18.03 h 2.88 v 29.07 h -3.23 v -21.91 l -7.38,14.71 h -2.79 l -7.38,-14.62 v 21.82 h -3.23 v -29.07 z"
   id="path15"
   style="fill:#131a23" />

		<path
   class="st0"
   d="m 253.54,189.59 c 1.62,-2.66 4.67,-4.32 8.34,-4.32 3.67,0 6.72,1.66 8.34,4.32 1.57,2.57 1.57,5.33 1.57,10.47 0,5.14 0,7.9 -1.57,10.47 -1.62,2.66 -4.67,4.32 -8.34,4.32 -3.67,0 -6.72,-1.66 -8.34,-4.32 -1.57,-2.57 -1.57,-5.33 -1.57,-10.47 0,-5.14 0,-7.9 1.57,-10.47 z m 2.8,19.42 c 1.05,1.75 3.1,2.79 5.54,2.79 2.44,0 4.49,-1.05 5.54,-2.79 1.13,-1.88 1.13,-4.5 1.13,-8.95 0,-4.45 0,-7.07 -1.13,-8.95 -1.05,-1.75 -3.1,-2.79 -5.54,-2.79 -2.44,0 -4.5,1.05 -5.54,2.79 -1.13,1.88 -1.13,4.5 -1.13,8.95 0,4.45 -0.01,7.07 1.13,8.95 z"
   id="path16"
   style="fill:#131a23" />

		<path
   class="st0"
   d="m 295.52,185.53 v 3.06 h -8.21 v 26.01 h -3.23 v -26.01 h -8.21 v -3.06 z"
   id="path17"
   style="fill:#131a23" />

		<path
   class="st0"
   d="m 301.81,189.59 c 1.62,-2.66 4.67,-4.32 8.34,-4.32 3.67,0 6.72,1.66 8.34,4.32 1.57,2.57 1.57,5.33 1.57,10.47 0,5.14 0,7.9 -1.57,10.47 -1.62,2.66 -4.67,4.32 -8.34,4.32 -3.67,0 -6.72,-1.66 -8.34,-4.32 -1.57,-2.57 -1.57,-5.33 -1.57,-10.47 0,-5.14 0,-7.9 1.57,-10.47 z m 2.79,19.42 c 1.05,1.75 3.1,2.79 5.54,2.79 2.44,0 4.49,-1.05 5.54,-2.79 1.13,-1.88 1.13,-4.5 1.13,-8.95 0,-4.45 0,-7.07 -1.13,-8.95 -1.05,-1.75 -3.1,-2.79 -5.54,-2.79 -2.44,0 -4.5,1.05 -5.54,2.79 -1.13,1.88 -1.13,4.5 -1.13,8.95 0,4.45 0,7.07 1.13,8.95 z"
   id="path18"
   style="fill:#131a23" />

		<path
   class="st0"
   d="m 332.18,185.53 c 3.45,0 6.63,0 9.21,2.4 1.61,1.53 2.66,3.8 2.66,6.55 0,3.8 -2.01,6.68 -4.71,7.94 l 5.15,12.18 H 341 l -4.71,-11.3 c -0.96,0.13 -1.92,0.13 -4.1,0.13 h -2.57 v 11.22 h -3.23 v -29.11 h 5.79 z m -2.57,14.84 h 2.57 c 3.27,0 5.28,0 6.94,-1.53 1.13,-1.05 1.7,-2.71 1.7,-4.36 0,-1.66 -0.57,-3.32 -1.7,-4.36 -1.66,-1.53 -3.67,-1.53 -6.94,-1.53 h -2.57 z"
   id="path19"
   style="fill:#131a23" />

		<path
   class="st0"
   d="m 366.16,187.71 -1.66,2.62 c -1.57,-1.27 -3.88,-2.01 -6.2,-2.01 -3.88,0 -5.41,2.23 -5.41,4.32 0,1.31 0.65,2.57 1.75,3.45 1.05,0.87 2.75,1.4 4.19,1.83 1.92,0.57 4.06,1.18 5.89,2.75 1.53,1.31 2.88,3.54 2.88,6.07 0,3.97 -3.05,8.12 -9.3,8.12 -3.05,0 -6.15,-0.96 -8.69,-2.97 l 1.83,-2.49 c 2.01,1.66 4.41,2.4 6.85,2.4 4.41,0 6.07,-2.71 6.07,-5.06 0,-1.35 -0.7,-2.88 -1.92,-3.88 -1.18,-1 -2.97,-1.53 -4.98,-2.14 -1.62,-0.48 -3.32,-0.96 -5.11,-2.44 -1.48,-1.22 -2.71,-3.32 -2.71,-5.54 0,-4.15 3.23,-7.46 8.64,-7.46 2.9,-0.01 5.83,0.9 7.88,2.43 z"
   id="path20"
   style="fill:#131a23" />

	</g>
  </g>
</svg>
